<?xml version="1.0" standalone="no"?>
<!DOCTYPE svg PUBLIC "-//W3C//DTD SVG 20010904//EN"
 "http://www.w3.org/TR/2001/REC-SVG-20010904/DTD/svg10.dtd">
<svg version="1.0" xmlns="http://www.w3.org/2000/svg"
 width="849.000000pt" height="849.000000pt" viewBox="0 0 849.000000 849.000000"
 preserveAspectRatio="xMidYMid meet">
<metadata>
Created by potrace 1.14, written by Peter Selinger 2001-2017
</metadata>
<g transform="translate(0.000000,849.000000) scale(0.100000,-0.100000)"
fill="#000000" stroke="none">
<path d="M1280 7408 c-55 -9 -68 -12 -100 -22 -86 -28 -176 -90 -238 -164 -48
-57 -54 -73 -14 -35 89 83 218 134 346 136 101 2 161 -7 255 -39 370 -124 780
-493 1382 -1244 172 -215 245 -297 344 -391 308 -293 662 -493 1028 -583 169
-42 235 -50 407 -49 l125 1 -100 -48 c-91 -44 -226 -94 -283 -105 -12 -2 -26
-6 -30 -9 -5 -3 -22 -8 -38 -10 -16 -3 -40 -8 -54 -11 -14 -3 -41 -8 -60 -11
-19 -4 -44 -8 -55 -10 -63 -12 -179 -19 -325 -19 -149 0 -323 10 -339 19 -3 2
-35 7 -70 10 -36 4 -68 9 -72 11 -3 3 -24 7 -45 11 -49 7 -290 69 -509 129
-168 47 -187 52 -235 61 -14 3 -38 9 -55 14 -46 14 -382 78 -450 86 -33 3 -62
8 -65 9 -29 17 -440 27 -555 13 -340 -40 -557 -225 -591 -503 -4 -39 -4 -39
19 17 56 134 140 227 262 290 138 72 234 92 435 92 98 0 278 -12 290 -19 3 -1
27 -6 54 -9 106 -15 352 -72 501 -117 222 -68 354 -115 710 -251 347 -134 454
-167 670 -208 156 -29 283 -38 495 -35 206 3 294 14 467 55 172 42 387 134
502 214 28 20 51 33 51 30 0 -9 -107 -162 -143 -204 -277 -327 -655 -565
-1117 -704 -47 -14 -164 -46 -260 -71 -374 -97 -541 -147 -803 -241 -272 -98
-529 -237 -692 -374 -158 -134 -250 -306 -248 -465 1 -84 5 -107 34 -192 24
-73 31 -78 19 -14 -4 24 -7 80 -5 125 11 368 396 654 1135 842 52 13 104 26
115 28 11 2 72 15 135 29 63 14 131 28 150 31 19 3 45 8 56 10 12 2 39 7 60
10 22 4 46 8 54 11 14 4 28 6 128 21 20 3 93 14 162 25 69 11 139 22 155 24
17 2 39 6 50 8 11 3 40 8 65 12 163 26 425 114 625 209 246 118 432 249 615
435 130 132 199 222 276 363 l46 83 -7 -99 c-23 -391 -215 -826 -530 -1205
-43 -52 -75 -85 -333 -346 -327 -331 -427 -440 -570 -619 -171 -213 -280 -385
-351 -552 -132 -311 -86 -578 129 -752 l45 -37 -27 35 c-275 351 -130 791 452
1370 58 58 128 125 155 150 107 97 243 217 285 250 24 19 63 51 86 70 52 44
50 43 235 191 340 272 575 552 743 882 122 239 196 481 212 696 10 128 10 154
4 204 -4 26 -3 50 1 52 12 8 87 -156 124 -271 40 -119 80 -308 92 -429 15
-154 9 -401 -13 -580 -11 -84 -57 -292 -95 -428 -82 -298 -150 -567 -185 -742
-16 -82 -24 -124 -28 -150 -3 -16 -7 -43 -10 -60 -3 -16 -8 -50 -11 -75 -3
-25 -8 -61 -11 -80 -3 -19 -8 -127 -10 -240 -5 -285 19 -422 102 -580 76 -146
232 -253 397 -274 47 -6 47 -1 0 14 -61 20 -150 78 -207 136 -84 84 -131 187
-174 381 -14 63 -11 335 5 443 8 52 15 106 17 120 2 14 6 39 10 55 3 17 8 39
10 50 2 11 9 38 14 60 6 22 13 51 16 65 31 163 172 583 334 997 125 319 156
429 207 728 20 119 26 411 11 555 -33 330 -125 600 -282 827 l-65 95 36 83
c56 130 77 224 81 360 7 249 -62 475 -200 654 -202 262 -492 404 -819 400
-375 -4 -706 -206 -879 -536 -42 -80 -84 -187 -94 -238 -2 -11 -8 -42 -13 -70
-10 -49 -8 -311 2 -350 3 -11 10 -40 16 -65 15 -56 70 -200 84 -218 14 -18 1
-27 -63 -45 -168 -46 -315 -59 -500 -44 -114 10 -136 14 -270 48 -175 45 -253
75 -425 162 -295 149 -438 262 -843 665 -142 141 -297 293 -345 336 -463 416
-806 618 -1091 642 -33 3 -65 7 -71 8 -5 1 -30 -1 -55 -6z"/>
</g>
</svg>
